<?xml version="1.0" encoding="utf-8"?>
<!-- Generator: Adobe Illustrator 25.0.0, SVG Export Plug-In . SVG Version: 6.00 Build 0)  -->
<svg version="1.1" id="cart" xmlns="http://www.w3.org/2000/svg" xmlns:xlink="http://www.w3.org/1999/xlink" x="0px" y="0px"
	 viewBox="0 0 35 35" style="enable-background:new 0 0 35 35;" xml:space="preserve">
<style type="text/css">
	.st0{fill:#FFFFFF;}
</style>
<path class="st0" d="M27.5,23.9H14.9c-2.4,0-4.4-1.6-4.9-3.9l-2-8.1c-0.7-2.7,1-5.5,3.8-6.2c0.4-0.1,0.8-0.1,1.2-0.1h16.5
	c2.8,0,5.1,2.3,5.1,5.1c0,0.4,0,0.8-0.1,1.2l-2,8.2C31.9,22.3,29.9,24,27.5,23.9z M12.9,8.1c-1.4,0-2.6,1.2-2.6,2.6
	c0,0.2,0,0.4,0.1,0.6l2,8.1c0.3,1.2,1.3,2,2.5,2h12.5c1.2,0,2.3-0.8,2.5-2l2-8.1c0.3-1.4-0.5-2.8-1.9-3.2c-0.2-0.1-0.4-0.1-0.6-0.1
	L12.9,8.1z"/>
<path class="st0" d="M9.5,14c-0.6,0-1.1-0.4-1.2-1L6.5,5.2C6.1,3.8,4.8,2.7,3.3,2.8H1.7C1,2.8,0.4,2.2,0.4,1.5S1,0.2,1.7,0.2h1.6
	c2.7,0,5,1.8,5.6,4.4l1.8,7.8c0.2,0.7-0.2,1.3-0.9,1.5c0,0,0,0,0,0C9.7,14,9.6,14,9.5,14z M15.1,34.8c-2.2,0-4-1.8-4-4
	c0-2.2,1.8-4,4-4s4,1.8,4,4S17.3,34.8,15.1,34.8L15.1,34.8z M15.1,29.2c-0.8,0-1.5,0.7-1.5,1.5c0,0.8,0.7,1.5,1.5,1.5
	s1.5-0.7,1.5-1.5l0,0C16.6,29.9,15.9,29.2,15.1,29.2z M28.9,34.8c-2.2,0-4-1.8-4-4s1.8-4,4-4s4,1.8,4,4S31.1,34.8,28.9,34.8z
	 M28.9,29.2c-0.8,0-1.5,0.7-1.5,1.5c0,0.8,0.7,1.5,1.5,1.5c0.8,0,1.5-0.7,1.5-1.5C30.5,29.9,29.8,29.2,28.9,29.2
	C28.9,29.2,28.9,29.2,28.9,29.2z"/>
<path class="st0" d="M28.9,29.2H12.3c-2.1,0-3.9-1.7-3.9-3.9s1.7-3.9,3.9-3.9h2.6c0.7,0,1.2,0.6,1.2,1.2s-0.6,1.2-1.2,1.2h-2.6
	c-0.8,0-1.4,0.6-1.4,1.4c0,0.8,0.6,1.4,1.4,1.4l0,0h16.7c0.7,0,1.2,0.6,1.2,1.2S29.6,29.2,28.9,29.2z"/>
</svg>
